<svg width="515" height="620" viewBox="0 0 515 620" fill="none" xmlns="http://www.w3.org/2000/svg">
<g opacity="0.05">
<path d="M-651 1L-619.525 3.59403L-588.049 6.65675L-556.574 10.1502L-525.098 14.0307L-493.623 18.2499L-462.148 22.7562L-430.672 27.4955L-399.197 32.4125L-367.721 37.4511L-336.246 42.5553L-304.77 47.6681L-273.295 52.7315L-241.82 57.7012L-210.344 62.5528L-178.869 67.2843L-147.393 71.8993L-115.918 76.4097L-84.4426 80.8303L-52.9672 85.1743L-21.4918 89.4505L9.98358 93.6613L41.459 97.802L72.9344 101.86L104.41 105.817L135.885 109.646L167.361 113.318L198.836 116.795L230.311 120.041L261.787 123.016L293.262 125.679L324.738 127.991L356.213 129.913L387.688 131.408L419.164 132.442L450.639 132.982L482.115 133L513.59 132.468L545.066 131.363L576.541 129.665L608.016 127.356L639.492 124.425L670.967 120.865L702.443 116.68L733.918 111.886L765.393 106.52L796.869 100.646L828.344 94.3493L859.82 87.7286L891.295 80.8883L922.771 73.937L954.246 66.9857L985.721 60.1454L1017.2 53.5248L1048.67 47.2282L1080.15 41.3536L1111.62 35.9903L1143.1 31.2175L1174.57 27.1025L1206.05 23.6992L1237.52 21.0474L1269 19.1714" stroke="white" stroke-width="2"/>
<path d="M-651 40.7915L-619.525 43.5882L-588.049 46.8926L-556.574 50.6642L-525.098 54.8558L-493.623 59.4151L-462.148 64.2852L-430.672 69.4058L-399.197 74.7139L-367.721 80.1441L-336.246 85.6285L-304.77 91.0965L-273.295 96.4739L-241.82 101.691L-210.344 106.701L-178.869 111.481L-147.393 116.027L-115.918 120.342L-84.4426 124.432L-52.9672 128.305L-21.4918 131.967L9.98358 135.418L41.459 138.656L72.9344 141.671L104.41 144.451L135.885 146.982L167.361 149.244L198.836 151.216L230.311 152.878L261.787 154.207L293.262 155.184L324.738 155.787L356.213 156L387.688 155.807L419.164 155.193L450.639 154.146L482.115 152.654L513.59 150.705L545.066 148.287L576.541 145.392L608.016 142.008L639.492 138.13L670.967 133.752L702.443 128.879L733.918 123.524L765.393 117.718L796.869 111.514L828.344 104.996L859.82 98.2626L891.295 91.4204L922.771 84.5779L954.246 77.8448L985.721 71.3296L1017.2 65.1369L1048.67 59.3661L1080.15 54.1088L1111.62 49.4468L1143.1 45.4507L1174.57 42.176L1206.05 39.6629L1237.52 37.935L1269 37" stroke="white" stroke-width="2"/>
<path d="M-651 85.7714L-619.525 88.8228L-588.049 92.3977L-556.574 96.453L-525.098 100.939L-493.623 105.798L-462.148 110.968L-430.672 116.381L-399.197 121.964L-367.721 127.638L-336.246 133.321L-304.77 138.92L-273.295 144.345L-241.82 149.51L-210.344 154.354L-178.869 158.845L-147.393 162.969L-115.918 166.722L-84.4426 170.11L-52.9672 173.139L-21.4918 175.816L9.98358 178.148L41.459 180.139L72.9344 181.791L104.41 183.104L135.885 184.079L167.361 184.711L198.836 185L230.311 184.943L261.787 184.538L293.262 183.784L324.738 182.682L356.213 181.233L387.688 179.437L419.164 177.299L450.639 174.819L482.115 172.001L513.59 168.845L545.066 165.35L576.541 161.512L608.016 157.329L639.492 152.794L670.967 147.905L702.443 142.663L733.918 137.077L765.393 131.171L796.869 124.989L828.344 118.606L859.82 112.117L891.295 105.627L922.771 99.24L954.246 93.059L985.721 87.186L1017.2 81.7178L1048.67 76.7444L1080.15 72.3468L1111.62 68.5954L1143.1 65.5487L1174.57 63.2516L1206.05 61.732L1237.52 61L1269 61.0485" stroke="white" stroke-width="2"/>
<path d="M-651 131.941L-619.525 135.331L-588.049 139.237L-556.574 143.614L-525.098 148.405L-493.623 153.546L-462.148 158.965L-430.672 164.582L-399.197 170.306L-367.721 176.044L-336.246 181.701L-304.77 187.181L-273.295 192.393L-241.82 197.252L-210.344 201.687L-178.869 205.653L-147.393 209.128L-115.918 212.105L-84.4426 214.587L-52.9672 216.585L-21.4918 218.11L9.98358 219.177L41.459 219.802L72.9344 220L104.41 219.787L135.885 219.181L167.361 218.198L198.836 216.858L230.311 215.179L261.787 213.179L293.262 210.875L324.738 208.286L356.213 205.427L387.688 202.314L419.164 198.96L450.639 195.377L482.115 191.574L513.59 187.56L545.066 183.338L576.541 178.907L608.016 174.265L639.492 169.408L670.967 164.328L702.443 159.024L733.918 153.501L765.393 147.775L796.869 141.885L828.344 135.899L859.82 129.911L891.295 124.016L922.771 118.313L954.246 112.897L985.721 107.858L1017.2 103.279L1048.67 99.2377L1080.15 95.7984L1111.62 93.0171L1143.1 90.9379L1174.57 89.5926L1206.05 89L1237.52 89.1616L1269 90.0613" stroke="white" stroke-width="2"/>
<path d="M-651 177.927L-619.525 181.678L-588.049 185.905L-556.574 190.553L-525.098 195.555L-493.623 200.835L-462.148 206.309L-430.672 211.888L-399.197 217.482L-367.721 222.997L-336.246 228.34L-304.77 233.421L-273.295 238.154L-241.82 242.459L-210.344 246.265L-178.869 249.517L-147.393 252.185L-115.918 254.259L-84.4426 255.743L-52.9672 256.649L-21.4918 257L9.98358 256.824L41.459 256.155L72.9344 255.026L104.41 253.474L135.885 251.533L167.361 249.236L198.836 246.618L230.311 243.708L261.787 240.538L293.262 237.136L324.738 233.529L356.213 229.743L387.688 225.798L419.164 221.714L450.639 217.507L482.115 213.19L513.59 208.769L545.066 204.249L576.541 199.63L608.016 194.906L639.492 190.07L670.967 185.113L702.443 180.029L733.918 174.819L765.393 169.498L796.869 164.105L828.344 158.707L859.82 153.393L891.295 148.255L922.771 143.379L954.246 138.848L985.721 134.738L1017.2 131.115L1048.67 128.039L1080.15 125.556L1111.62 123.707L1143.1 122.517L1174.57 122L1206.05 122.158L1237.52 122.983L1269 124.455" stroke="white" stroke-width="2"/>
<path d="M-651 223.255L-619.525 227.234L-588.049 231.604L-556.574 236.307L-525.098 241.274L-493.623 246.429L-462.148 251.687L-430.672 256.962L-399.197 262.164L-367.721 267.204L-336.246 271.994L-304.77 276.45L-273.295 280.495L-241.82 284.058L-210.344 287.077L-178.869 289.503L-147.393 291.3L-115.918 292.461L-84.4426 293L-52.9672 292.945L-21.4918 292.333L9.98358 291.207L41.459 289.611L72.9344 287.591L104.41 285.189L135.885 282.447L167.361 279.406L198.836 276.104L230.311 272.577L261.787 268.859L293.262 264.982L324.738 260.975L356.213 256.864L387.688 252.674L419.164 248.422L450.639 244.123L482.115 239.786L513.59 235.417L545.066 231.016L576.541 226.579L608.016 222.097L639.492 217.559L670.967 212.953L702.443 208.273L733.918 203.521L765.393 198.715L796.869 193.902L828.344 189.157L859.82 184.563L891.295 180.203L922.771 176.152L954.246 172.477L985.721 169.238L1017.2 166.486L1048.67 164.262L1080.15 162.596L1111.62 161.507L1143.1 161L1174.57 161.072L1206.05 161.713L1237.52 162.901L1269 164.614" stroke="white" stroke-width="2"/>
<path d="M-651 265.257L-619.525 269.204L-588.049 273.471L-556.574 278.006L-525.098 282.747L-493.623 287.62L-462.148 292.543L-430.672 297.431L-399.197 302.197L-367.721 306.754L-336.246 311.017L-304.77 314.903L-273.295 318.338L-241.82 321.254L-210.344 323.601L-178.869 325.347L-147.393 326.479L-115.918 327L-84.4426 326.972L-52.9672 326.331L-21.4918 325.2L9.98358 323.624L41.459 321.648L72.9344 319.316L104.41 316.671L135.885 313.753L167.361 310.602L198.836 307.252L230.311 303.737L261.787 300.089L293.262 296.336L324.738 292.503L356.213 288.615L387.688 284.69L419.164 280.734L450.639 276.759L482.115 272.767L513.59 268.759L545.066 264.73L576.541 260.67L608.016 256.567L639.492 252.406L670.967 248.179L702.443 243.88L733.918 239.522L765.393 235.137L796.869 230.79L828.344 226.561L859.82 222.53L891.295 218.769L922.771 215.34L954.246 212.3L985.721 209.693L1017.2 207.556L1048.67 205.913L1080.15 204.774L1111.62 204.139L1143.1 204L1174.57 204.343L1206.05 205.147L1237.52 206.39L1269 208.042" stroke="white" stroke-width="2"/>
<path d="M-651 298.475L-619.525 301.955L-588.049 305.713L-556.574 309.708L-525.098 313.887L-493.623 318.189L-462.148 322.541L-430.672 326.865L-399.197 331.08L-367.721 335.104L-336.246 338.856L-304.77 342.259L-273.295 345.25L-241.82 347.785L-210.344 349.834L-178.869 351.382L-147.393 352.422L-115.918 352.958L-84.4426 353L-52.9672 352.568L-21.4918 351.69L9.98358 350.58L41.459 348.865L72.9344 346.889L104.41 344.683L135.885 342.28L167.361 339.709L198.836 336.994L230.311 334.16L261.787 331.255L293.262 328.255L324.738 325.186L356.213 322.059L387.688 318.881L419.164 315.656L450.639 312.383L482.115 309.059L513.59 305.675L545.066 302.22L576.541 298.68L608.016 295.041L639.492 291.292L670.967 287.43L702.443 283.466L733.918 279.429L765.393 275.38L796.869 271.397L828.344 267.558L859.82 263.936L891.295 260.593L922.771 257.581L954.246 254.945L985.721 252.719L1017.2 250.92L1048.67 249.556L1080.15 248.622L1111.62 248.109L1143.1 248L1174.57 248.277L1206.05 248.916L1237.52 249.893L1269 251.18" stroke="white" stroke-width="2"/>
<path d="M-651 324.382L-619.525 327.047L-588.049 329.987L-556.574 333.175L-525.098 336.576L-493.623 340.142L-462.148 343.814L-430.672 347.522L-399.197 351.197L-367.721 354.763L-336.246 358.155L-304.77 361.324L-273.295 364.235L-241.82 366.862L-210.344 369.186L-178.869 371.189L-147.393 372.857L-115.918 374.178L-84.4426 375.143L-52.9672 375.75L-21.4918 376L9.98358 375.901L41.459 375.471L72.9344 374.734L104.41 373.994L135.885 372.602L167.361 371.162L198.836 369.548L230.311 367.827L261.787 366.005L293.262 364.082L324.738 362.057L356.213 359.927L387.688 357.686L419.164 355.323L450.639 352.828L482.115 350.187L513.59 347.384L545.066 344.404L576.541 341.233L608.016 337.861L639.492 334.289L670.967 330.532L702.443 326.627L733.918 322.639L765.393 318.648L796.869 314.733L828.344 310.971L859.82 307.43L891.295 304.166L922.771 301.227L954.246 298.647L985.721 296.447L1017.2 294.631L1048.67 293.197L1080.15 292.134L1111.62 291.426L1143.1 291.055L1174.57 291L1206.05 291.24L1237.52 291.752L1269 292.513" stroke="white" stroke-width="2"/>
<path d="M-651 344.173L-619.525 345.632L-588.049 347.389L-556.574 349.44L-525.098 351.768L-493.623 354.345L-462.148 357.126L-430.672 360.059L-399.197 363.088L-367.721 366.171L-336.246 369.279L-304.77 372.396L-273.295 375.504L-241.82 378.587L-210.344 381.624L-178.869 384.589L-147.393 387.452L-115.918 390.178L-84.4426 392.733L-52.9672 395.078L-21.4918 397.181L9.98358 399.01L41.459 400.544L72.9344 401.865L104.41 402.79L135.885 403.406L167.361 403.73L198.836 404L230.311 403.636L261.787 403.125L293.262 402.45L324.738 401.593L356.213 400.534L387.688 399.252L419.164 397.724L450.639 395.93L482.115 393.848L513.59 391.46L545.066 388.754L576.541 385.722L608.016 382.374L639.492 378.733L670.967 374.851L702.443 370.8L733.918 366.66L765.393 362.511L796.869 358.434L828.344 354.506L859.82 350.795L891.295 347.353L922.771 344.225L954.246 341.436L985.721 338.999L1017.2 336.912L1048.67 335.167L1080.15 333.75L1111.62 332.647L1143.1 331.838L1174.57 331.306L1206.05 331.032L1237.52 331L1269 331.192" stroke="white" stroke-width="2"/>
<path d="M-651 360.025L-619.525 360L-588.049 360.32L-556.574 361.002L-525.098 362.054L-493.623 363.466L-462.148 365.212L-430.672 367.263L-399.197 369.603L-367.721 372.232L-336.246 375.154L-304.77 378.375L-273.295 381.889L-241.82 385.683L-210.344 389.733L-178.869 393.999L-147.393 398.432L-115.918 402.971L-84.4426 407.548L-52.9672 412.091L-21.4918 416.583L9.98358 420.846L41.459 424.86L72.9344 428.56L104.41 431.894L135.885 434.818L167.361 437.304L198.836 439.336L230.311 440.911L261.787 442.038L293.262 442.824L324.738 443L356.213 442.829L387.688 442.277L419.164 441.313L450.639 439.912L482.115 438.051L513.59 435.72L545.066 432.919L576.541 429.669L608.016 426.01L639.492 422.008L670.967 417.737L702.443 413.278L733.918 408.714L765.393 404.128L796.869 399.607L828.344 395.229L859.82 391.067L891.295 387.177L922.771 383.603L954.246 380.365L985.721 377.474L1017.2 374.929L1048.67 372.719L1080.15 370.832L1111.62 369.253L1143.1 367.967L1174.57 366.96L1206.05 366.216L1237.52 365.726L1269 365.476" stroke="white" stroke-width="2"/>
<path d="M-651 376.147L-619.525 374.492L-588.049 373.224L-556.574 372.385L-525.098 372L-493.623 372.08L-462.148 372.625L-430.672 373.648L-399.197 375.178L-367.721 377.25L-336.246 379.895L-304.77 383.134L-273.295 386.974L-241.82 391.404L-210.344 396.392L-178.869 401.888L-147.393 407.824L-115.918 414.127L-84.4426 420.683L-52.9672 427.393L-21.4918 434.143L9.98358 440.815L41.459 447.293L72.9344 453.465L104.41 459.227L135.885 464.49L167.361 469.175L198.836 473.223L230.311 476.59L261.787 479.251L293.262 481.2L324.738 482.443L356.213 483L387.688 482.908L419.164 482.151L450.639 480.792L482.115 478.824L513.59 476.262L545.066 473.139L576.541 469.512L608.016 465.443L639.492 461.006L670.967 456.279L702.443 451.346L733.918 446.295L765.393 441.212L796.869 436.185L828.344 431.297L859.82 426.626L891.295 422.236L922.771 418.178L954.246 414.469L985.721 411.126L1017.2 408.15L1048.67 405.532L1080.15 403.262L1111.62 401.327L1143.1 399.716L1174.57 398.417L1206.05 397.419L1237.52 396.714L1269 396.295" stroke="white" stroke-width="2"/>
<path d="M-651 399.204L-619.525 395.981L-588.049 393.173L-556.574 390.837L-525.098 389.016L-493.623 387.743L-462.148 387.053L-430.672 387L-399.197 387.649L-367.721 389.063L-336.246 391.295L-304.77 394.383L-273.295 398.342L-241.82 403.162L-210.344 408.81L-178.869 415.227L-147.393 422.331L-115.918 430.018L-84.4426 438.167L-52.9672 446.64L-21.4918 455.29L9.98358 463.961L41.459 472.497L72.9344 480.744L104.41 488.553L135.885 495.789L167.361 502.331L198.836 508.078L230.311 512.948L261.787 516.884L293.262 519.854L324.738 521.848L356.213 522.884L387.688 523L419.164 522.253L450.639 520.717L482.115 518.466L513.59 515.564L545.066 512.065L576.541 508.027L608.016 503.523L639.492 498.628L670.967 493.427L702.443 488.007L733.918 482.46L765.393 476.877L796.869 471.347L828.344 465.958L859.82 460.794L891.295 455.929L922.771 451.424L954.246 447.307L985.721 443.602L1017.2 440.313L1048.67 437.437L1080.15 434.965L1111.62 432.902L1143.1 431.177L1174.57 429.821L1206.05 428.826L1237.52 428.183L1269 427.885" stroke="white" stroke-width="2"/>
<path d="M-651 429.57L-619.525 424.973L-588.049 420.784L-556.574 417.075L-525.098 413.91L-493.623 411.344L-462.148 409.445L-430.672 408.3L-399.197 408L-367.721 408.632L-336.246 410.267L-304.77 412.958L-273.295 416.727L-241.82 421.571L-210.344 427.456L-178.869 434.318L-147.393 442.065L-115.918 450.58L-84.4426 459.722L-52.9672 469.332L-21.4918 479.235L9.98358 489.249L41.459 499.184L72.9344 508.852L104.41 518.072L135.885 526.672L167.361 534.499L198.836 541.419L230.311 547.324L261.787 552.134L293.262 555.802L324.738 558.316L356.213 559.698L387.688 560L419.164 559.297L450.639 557.68L482.115 555.252L513.59 552.108L545.066 548.328L576.541 543.981L608.016 539.141L639.492 533.889L670.967 528.315L702.443 522.51L733.918 516.571L765.393 510.592L796.869 504.67L828.344 498.894L859.82 493.349L891.295 488.111L922.771 483.249L954.246 478.809L985.721 474.822L1017.2 471.299L1048.67 468.243L1080.15 465.649L1111.62 463.51L1143.1 461.815L1174.57 460.554L1206.05 459.714L1237.52 459.282L1269 459.242" stroke="white" stroke-width="2"/>
<path d="M-651 468.69L-619.525 463.037L-588.049 457.743L-556.574 452.896L-525.098 448.577L-493.623 444.861L-462.148 441.838L-430.672 439.614L-399.197 438.3L-367.721 438L-336.246 438.801L-304.77 440.767L-273.295 443.932L-241.82 448.299L-210.344 453.838L-178.869 460.487L-147.393 468.152L-115.918 476.71L-84.4426 486.012L-52.9672 495.888L-21.4918 506.15L9.98358 516.6L41.459 527.032L72.9344 537.24L104.41 547.025L135.885 556.199L167.361 564.592L198.836 572.059L230.311 578.482L261.787 583.773L293.262 587.875L324.738 590.767L356.213 592.461L387.688 593L419.164 592.455L450.639 590.92L482.115 588.504L513.59 585.319L545.066 581.472L576.541 577.046L608.016 572.119L639.492 566.773L670.967 561.098L702.443 555.188L733.918 549.136L765.393 543.031L796.869 536.96L828.344 531.008L859.82 525.258L891.295 519.787L922.771 514.669L954.246 509.967L985.721 505.73L1017.2 501.989L1048.67 498.76L1080.15 496.05L1111.62 493.856L1143.1 492.172L1174.57 490.985L1206.05 490.279L1237.52 490.035L1269 490.232" stroke="white" stroke-width="2"/>
<path d="M-651 514.472L-619.525 508.077L-588.049 501.963L-556.574 496.229L-525.098 490.969L-493.623 486.27L-462.148 482.23L-430.672 478.965L-399.197 476.598L-367.721 475.243L-336.246 475L-304.77 475.944L-273.295 478.121L-241.82 481.545L-210.344 486.195L-178.869 492.018L-147.393 498.926L-115.918 506.802L-84.4426 515.501L-52.9672 524.855L-21.4918 534.68L9.98358 544.776L41.459 554.939L72.9344 564.961L104.41 574.641L135.885 583.787L167.361 592.223L198.836 599.794L230.311 606.372L261.787 611.856L293.262 616.178L324.738 619.304L356.213 621.234L387.688 622L419.164 621.665L450.639 620.318L482.115 618.065L513.59 615.023L545.066 611.308L576.541 607.02L608.016 602.238L639.492 597.041L670.967 591.505L702.443 585.706L733.918 579.724L765.393 573.639L796.869 567.536L828.344 561.5L859.82 555.618L891.295 549.972L922.771 544.642L954.246 539.704L985.721 535.22L1017.2 531.239L1048.67 527.798L1080.15 524.92L1111.62 522.613L1143.1 520.878L1174.57 519.704L1206.05 519.073L1237.52 518.962L1269 519.339" stroke="white" stroke-width="2"/>
<path d="M-651 564.17L-619.525 557.303L-588.049 550.619L-556.574 544.227L-525.098 538.227L-493.623 532.715L-462.148 527.787L-430.672 523.556L-399.197 520.148L-367.721 517.685L-336.246 516.273L-304.77 516L-273.295 516.925L-241.82 519.075L-210.344 522.447L-178.869 527L-147.393 532.664L-115.918 539.335L-84.4426 546.882L-52.9672 555.152L-21.4918 563.969L9.98358 573.145L41.459 582.483L72.9344 591.783L104.41 600.846L135.885 609.482L167.361 617.516L198.836 624.789L230.311 631.168L261.787 636.545L293.262 640.844L324.738 644.022L356.213 646.066L387.688 647L419.164 646.875L450.639 645.771L482.115 643.787L513.59 641.036L545.066 637.633L576.541 633.671L608.016 629.216L639.492 624.322L670.967 619.046L702.443 613.454L733.918 607.617L765.393 601.615L796.869 595.533L828.344 589.46L859.82 583.487L891.295 577.705L922.771 572.202L954.246 567.062L985.721 562.359L1017.2 558.158L1048.67 554.509L1080.15 551.447L1111.62 548.992L1143.1 547.153L1174.57 545.927L1206.05 545.299L1237.52 545.244L1269 545.725" stroke="white" stroke-width="2"/>
<path d="M-651 615.621L-619.525 608.666L-588.049 601.786L-556.574 595.089L-525.098 588.68L-493.623 582.659L-462.148 577.118L-430.672 572.158L-399.197 567.895L-367.721 564.446L-336.246 561.922L-304.77 560.417L-273.295 560L-241.82 560.713L-210.344 562.567L-178.869 565.542L-147.393 569.587L-115.918 574.62L-84.4426 580.533L-52.9672 587.192L-21.4918 594.446L9.98358 602.127L41.459 610.056L72.9344 618.052L104.41 625.931L135.885 633.516L167.361 640.642L198.836 647.157L230.311 652.93L261.787 657.855L293.262 661.852L324.738 664.87L356.213 666.889L387.688 667.919L419.164 668L450.639 667.197L482.115 665.595L513.59 663.294L545.066 660.362L576.541 656.878L608.016 652.881L639.492 648.407L670.967 643.506L702.443 638.236L733.918 632.664L765.393 626.869L796.869 620.937L828.344 614.958L859.82 609.029L891.295 603.247L922.771 597.706L954.246 592.495L985.721 587.698L1017.2 583.388L1048.67 579.626L1080.15 576.458L1111.62 573.913L1143.1 572.005L1174.57 570.734L1206.05 570.086L1237.52 570.037L1269 570.551" stroke="white" stroke-width="2"/>
</g>
</svg>
