<?xml version="1.0" encoding="UTF-8"?>
<svg id="katman_1" data-name="katman 1" xmlns="http://www.w3.org/2000/svg" version="1.1" viewBox="0 0 841.89 595.28">
  <defs>
    <style>
      .cls-1 {
        fill: #fff;
        stroke-width: 0px;
      }
    </style>
  </defs>
  <path class="cls-1" d="M420.78,180.17l-54.49,73.81s95.8,168.41,95.85,168.98c-36.69-49.72-73.37-99.44-110.18-149.31-36.73,49.77-73.37,99.43-110.01,149.09-.08-.05,119.05-209.75,178.82-314.78,59.82,105.12,119.5,210,179.18,314.87-.08.05-179.17-242.66-179.17-242.66"/>
  <polygon class="cls-1" points="524.18 479.05 524.18 487.2 467.13 487.2 467.13 431.14 523.66 431.14 523.66 439.3 477.68 439.3 477.68 453.88 505.32 453.88 505.32 462.2 477.66 462.2 477.66 479.05 524.18 479.05"/>
  <path class="cls-1" d="M321.77,466.08h29.81c-5-8.93-9.91-17.72-14.93-26.69-4.99,8.96-9.89,17.76-14.87,26.69M375.01,487.4l-11.49-.04-7.3-13.09h-39.07s-7.51,13.15-7.51,13.15l-10.2-.02,32.5-56.26h9.78l33.29,56.26Z"/>
  <polygon class="cls-1" points="272.62 465.04 247.06 465.04 247.06 487.2 236.53 487.2 236.53 431.14 292.37 431.14 292.37 439.34 247.01 439.31 247.01 456.75 272.62 456.75 272.62 465.04"/>
  <polygon class="cls-1" points="534.19 431.14 545.58 431.14 570.72 476.21 594.85 431.14 605.36 431.14 574.64 487.31 566.42 487.29 534.19 431.14"/>
  <path class="cls-1" d="M450.89,431.05c-1.75,1.91-3.28,3.6-4.83,5.28-7.91,8.58-15.83,17.14-23.71,25.74-.39.42-.66,1.12-.67,1.7-.04,7.31-.03,14.63-.03,21.94v1.51h-10.57v-1.41c0-7.27-.02-14.55.02-21.82,0-.96-.31-1.63-.95-2.32-9.28-9.97-18.53-19.96-27.78-29.95-.13-.14-.23-.3-.44-.58.42-.04.73-.08,1.04-.08,3.52,0,7.04.03,10.57-.03.86-.01,1.42.28,1.97.88,5.58,6.09,11.18,12.17,16.77,18.25,1.57,1.71,3.16,3.42,4.81,5.2,1.42-1.61,2.75-3.13,4.09-4.65,5.53-6.29,11.05-12.59,16.6-18.87.32-.36.85-.75,1.28-.76,3.83-.06,7.65-.03,11.84-.03"/>
</svg>